<svg width="21" height="28" viewBox="0 0 21 28" fill="none" xmlns="http://www.w3.org/2000/svg">
<g clip-path="url(#clip0_26_458)">
<path d="M10.5 0C8.21406 0 6.26719 1.46016 5.55078 3.5H3.5C1.56953 3.5 0 5.06953 0 7V24.5C0 26.4305 1.56953 28 3.5 28H17.5C19.4305 28 21 26.4305 21 24.5V7C21 5.06953 19.4305 3.5 17.5 3.5H15.4492C14.7328 1.46016 12.7859 0 10.5 0ZM10.5 3.5C10.9641 3.5 11.4092 3.68437 11.7374 4.01256C12.0656 4.34075 12.25 4.78587 12.25 5.25C12.25 5.71413 12.0656 6.15925 11.7374 6.48744C11.4092 6.81563 10.9641 7 10.5 7C10.0359 7 9.59075 6.81563 9.26256 6.48744C8.93437 6.15925 8.75 5.71413 8.75 5.25C8.75 4.78587 8.93437 4.34075 9.26256 4.01256C9.59075 3.68437 10.0359 3.5 10.5 3.5ZM16.6797 14.9297L9.67969 21.9297C9.16562 22.4438 8.33438 22.4438 7.82578 21.9297L4.32031 18.4297C3.80625 17.9156 3.80625 17.0844 4.32031 16.5758C4.83437 16.0672 5.66563 16.0617 6.17422 16.5758L8.74453 19.1461L14.8203 13.0703C15.3344 12.5562 16.1656 12.5562 16.6742 13.0703C17.1828 13.5844 17.1883 14.4156 16.6742 14.9242L16.6797 14.9297Z" fill="#7749F8"/>
</g>
<defs>
<clipPath id="clip0_26_458">
<rect width="21" height="28" fill="white"/>
</clipPath>
</defs>
</svg>
