<svg width="26" height="26" viewBox="0 0 26 26" fill="none" xmlns="http://www.w3.org/2000/svg">
<g clip-path="url(#clip0_26_450)">
<path d="M13 26C16.4478 26 19.7544 24.6304 22.1924 22.1924C24.6304 19.7544 26 16.4478 26 13C26 9.55219 24.6304 6.24558 22.1924 3.80761C19.7544 1.36964 16.4478 0 13 0C9.55219 0 6.24558 1.36964 3.80761 3.80761C1.36964 6.24558 0 9.55219 0 13C0 16.4478 1.36964 19.7544 3.80761 22.1924C6.24558 24.6304 9.55219 26 13 26ZM4.91563 15.9504C4.72266 15.2547 5.29141 14.625 6.0125 14.625H19.9875C20.7086 14.625 21.2824 15.2547 21.0844 15.9504C20.1195 19.3984 16.8645 21.9375 13 21.9375C9.13555 21.9375 5.88047 19.3984 4.91563 15.9504ZM6.7793 5.82461L11.3445 8.25703C11.8879 8.54648 11.8879 9.32852 11.3445 9.61797L6.7793 12.0504C6.37813 12.2637 5.89062 11.9742 5.89062 11.5172C5.89062 11.375 5.94141 11.2379 6.03281 11.1312L7.86094 8.9375L6.03281 6.74375C5.94141 6.63711 5.89062 6.5 5.89062 6.35781C5.89062 5.90078 6.37813 5.61133 6.7793 5.82461ZM20.1094 6.35273C20.1094 6.49492 20.0586 6.63203 19.9672 6.73867L18.1391 8.93242L19.9672 11.1262C20.0586 11.2328 20.1094 11.3699 20.1094 11.5121C20.1094 11.9691 19.6219 12.2586 19.2207 12.0453L14.6555 9.61289C14.1121 9.32344 14.1121 8.54141 14.6555 8.25195L19.2207 5.81953C19.6219 5.60625 20.1094 5.8957 20.1094 6.35273Z" fill="#7749F8"/>
</g>
<defs>
<clipPath id="clip0_26_450">
<rect width="26" height="26" fill="white"/>
</clipPath>
</defs>
</svg>
