<svg width="32" height="28" viewBox="0 0 32 28" fill="none" xmlns="http://www.w3.org/2000/svg">
<g clip-path="url(#clip0_26_456)">
<path d="M22.2222 5.25V5.28828C21.9278 5.26641 21.6333 5.25 21.3333 5.25H14.2222C13.3056 5.25 12.4167 5.36484 11.5667 5.57812C11.5611 5.46875 11.5556 5.35938 11.5556 5.25C11.5556 2.35156 13.9444 0 16.8889 0C19.8333 0 22.2222 2.35156 22.2222 5.25ZM21.3333 7C21.5278 7 21.7222 7.00547 21.9111 7.01641C22.1444 7.03281 22.3778 7.05469 22.6111 7.0875C23.5889 5.96641 25.0444 5.25 26.6667 5.25H27.3056C27.8833 5.25 28.3056 5.78594 28.1667 6.33828L27.4 9.35703C28.2778 10.1664 28.9944 11.1508 29.4833 12.25H30.2222C31.2056 12.25 32 13.032 32 14V19.25C32 20.218 31.2056 21 30.2222 21H28.4444C27.9389 21.6617 27.3389 22.2523 26.6667 22.75V26.25C26.6667 27.218 25.8722 28 24.8889 28H23.1111C22.1278 28 21.3333 27.218 21.3333 26.25V24.5H14.2222V26.25C14.2222 27.218 13.4278 28 12.4444 28H10.6667C9.68333 28 8.88889 27.218 8.88889 26.25V22.75C6.95 21.3172 5.62778 19.1242 5.37778 16.625H3.77778C1.68889 16.625 0 14.9625 0 12.9062C0 10.85 1.68889 9.1875 3.77778 9.1875H4C4.73889 9.1875 5.33333 9.77266 5.33333 10.5C5.33333 11.2273 4.73889 11.8125 4 11.8125H3.77778C3.16667 11.8125 2.66667 12.3047 2.66667 12.9062C2.66667 13.5078 3.16667 14 3.77778 14H5.51111C6.18333 10.7297 8.71667 8.12109 11.9722 7.28437C12.6889 7.09844 13.4444 7 14.2222 7H21.3333ZM24.8889 14.4375C24.8889 14.0894 24.7484 13.7556 24.4984 13.5094C24.2483 13.2633 23.9092 13.125 23.5556 13.125C23.2019 13.125 22.8628 13.2633 22.6127 13.5094C22.3627 13.7556 22.2222 14.0894 22.2222 14.4375C22.2222 14.7856 22.3627 15.1194 22.6127 15.3656C22.8628 15.6117 23.2019 15.75 23.5556 15.75C23.9092 15.75 24.2483 15.6117 24.4984 15.3656C24.7484 15.1194 24.8889 14.7856 24.8889 14.4375Z" fill="#7749F8"/>
</g>
<defs>
<clipPath id="clip0_26_456">
<rect width="32" height="28" fill="white"/>
</clipPath>
</defs>
</svg>
