<svg width="50" height="52" viewBox="0 0 50 52" fill="none" xmlns="http://www.w3.org/2000/svg">
<ellipse cx="28.4747" cy="21.2853" rx="14.7231" ry="15.4154" transform="rotate(40.5747 28.4747 21.2853)" fill="white"/>
<mask id="path-2-inside-1_77_164" fill="white">
<path fill-rule="evenodd" clip-rule="evenodd" d="M16.0842 30.3987C13.4102 26.6041 12.7574 21.6912 14.2094 17.1957L34.7105 34.7515C30.533 36.8572 25.6336 36.9865 21.4981 34.99L13.9288 43.8292L8.537 39.212L16.0842 30.3987Z"/>
</mask>
<path fill-rule="evenodd" clip-rule="evenodd" d="M16.0842 30.3987C13.4102 26.6041 12.7574 21.6912 14.2094 17.1957L34.7105 34.7515C30.533 36.8572 25.6336 36.9865 21.4981 34.99L13.9288 43.8292L8.537 39.212L16.0842 30.3987Z" fill="#7749F8"/>
<path d="M14.2094 17.1957L15.5103 15.6766L13.2292 13.7232L12.3062 16.581L14.2094 17.1957ZM16.0842 30.3987L17.6033 31.6995L18.6151 30.5181L17.7191 29.2466L16.0842 30.3987ZM34.7105 34.7515L35.6107 36.5375L38.2924 35.1858L36.0114 33.2324L34.7105 34.7515ZM21.4981 34.99L22.3677 33.1889L20.9808 32.5194L19.979 33.6891L21.4981 34.99ZM13.9288 43.8292L12.6279 45.3484L14.147 46.6492L15.4479 45.1301L13.9288 43.8292ZM8.537 39.212L7.01788 37.9112L5.717 39.4303L7.23612 40.7312L8.537 39.212ZM12.3062 16.581C10.6722 21.6401 11.3926 27.213 14.4494 31.5507L17.7191 29.2466C15.4277 25.9951 14.8426 21.7423 16.1126 17.8104L12.3062 16.581ZM36.0114 33.2324L15.5103 15.6766L12.9085 18.7148L33.4096 36.2707L36.0114 33.2324ZM20.6286 36.7911C25.3554 39.073 30.9093 38.9072 35.6107 36.5375L33.8103 32.9656C30.1567 34.8072 25.9119 34.9 22.3677 33.1889L20.6286 36.7911ZM19.979 33.6891L12.4097 42.5284L15.4479 45.1301L23.0173 36.2909L19.979 33.6891ZM15.2297 42.3101L9.83788 37.6929L7.23612 40.7312L12.6279 45.3484L15.2297 42.3101ZM10.0561 40.5129L17.6033 31.6995L14.5651 29.0978L7.01788 37.9112L10.0561 40.5129Z" fill="white" mask="url(#path-2-inside-1_77_164)"/>
</svg>
