<svg width="50" height="52" viewBox="0 0 50 52" fill="none" xmlns="http://www.w3.org/2000/svg">
<ellipse cx="28.4746" cy="21.2853" rx="14.7231" ry="15.4154" transform="rotate(40.5747 28.4746 21.2853)" fill="#7749F8"/>
<mask id="path-2-inside-1_24_169" fill="white">
<path fill-rule="evenodd" clip-rule="evenodd" d="M16.0843 30.3987C13.4102 26.6041 12.7575 21.6912 14.2095 17.1957L34.7106 34.7515C30.5331 36.8572 25.6337 36.9865 21.4982 34.99L13.9289 43.8292L8.53706 39.212L16.0843 30.3987Z"/>
</mask>
<path fill-rule="evenodd" clip-rule="evenodd" d="M16.0843 30.3987C13.4102 26.6041 12.7575 21.6912 14.2095 17.1957L34.7106 34.7515C30.5331 36.8572 25.6337 36.9865 21.4982 34.99L13.9289 43.8292L8.53706 39.212L16.0843 30.3987Z" fill="white"/>
<path d="M14.2095 17.1957L15.5104 15.6766L13.2293 13.7232L12.3063 16.581L14.2095 17.1957ZM16.0843 30.3987L17.6034 31.6995L18.6151 30.5181L17.7191 29.2466L16.0843 30.3987ZM34.7106 34.7515L35.6108 36.5375L38.2925 35.1858L36.0114 33.2324L34.7106 34.7515ZM21.4982 34.99L22.3677 33.1889L20.9808 32.5194L19.9791 33.6891L21.4982 34.99ZM13.9289 43.8292L12.628 45.3484L14.1471 46.6492L15.448 45.1301L13.9289 43.8292ZM8.53706 39.212L7.01794 37.9112L5.71706 39.4303L7.23618 40.7312L8.53706 39.212ZM12.3063 16.581C10.6722 21.6401 11.3926 27.213 14.4494 31.5507L17.7191 29.2466C15.4278 25.9951 14.8427 21.7423 16.1127 17.8104L12.3063 16.581ZM36.0114 33.2324L15.5104 15.6766L12.9086 18.7148L33.4097 36.2707L36.0114 33.2324ZM20.6287 36.7911C25.3554 39.073 30.9094 38.9072 35.6108 36.5375L33.8104 32.9656C30.1567 34.8072 25.912 34.9 22.3677 33.1889L20.6287 36.7911ZM19.9791 33.6891L12.4097 42.5284L15.448 45.1301L23.0173 36.2909L19.9791 33.6891ZM15.2297 42.3101L9.83794 37.6929L7.23618 40.7312L12.628 45.3484L15.2297 42.3101ZM10.0562 40.5129L17.6034 31.6995L14.5652 29.0978L7.01794 37.9112L10.0562 40.5129Z" fill="#7749F8" mask="url(#path-2-inside-1_24_169)"/>
</svg>
